<svg width="16" height="16" viewBox="0 0 16 16" fill="none" xmlns="http://www.w3.org/2000/svg">
<g clip-path="url(#clip0_819_1543936)">
<path d="M5.74722 7.76407C6.91993 7.76407 7.87059 6.8134 7.87059 5.6407C7.87059 4.468 6.91993 3.51733 5.74722 3.51733C4.57452 3.51733 3.62386 4.468 3.62386 5.6407C3.62386 6.8134 4.57452 7.76407 5.74722 7.76407Z" fill="#FF797B" stroke="#FF797B" stroke-width="1.41558" stroke-linecap="round"/>
<path d="M8.05974 5.6406C8.15201 5.47831 8.27547 5.33588 8.42301 5.2215C8.57055 5.10712 8.73926 5.02305 8.91943 4.97414C9.09959 4.92522 9.28765 4.91243 9.47278 4.93649C9.65791 4.96055 9.83645 5.021 9.99813 5.11434C10.1598 5.20769 10.3014 5.33209 10.4148 5.48039C10.5282 5.62869 10.6112 5.79795 10.6589 5.97844C10.7066 6.15892 10.7181 6.34706 10.6929 6.53203C10.6676 6.71699 10.6059 6.89513 10.5115 7.05618C10.3225 7.37866 10.0135 7.61327 9.65215 7.70882C9.29075 7.80436 8.90624 7.75309 8.58252 7.56618C8.25879 7.37927 8.02214 7.0719 7.9242 6.71115C7.82626 6.35041 7.87498 5.96556 8.05974 5.6406Z" fill="#FF797B" stroke="#FF797B" stroke-width="1.41558"/>
<path d="M10.9623 12.3643V13.0723H9.55702V13.0078L9.96523 12.9258L10.3119 12.8564L10.2426 12.5098C10.2332 12.463 10.2199 12.4147 10.2084 12.3643H10.9623ZM12.31 12.1787C12.3039 12.3803 12.2283 12.5558 12.1098 12.6982C11.9946 12.8365 11.8394 12.9424 11.6693 13.0059V12.4062L12.31 12.1787ZM8.85878 10.9961C9.01248 11.2127 9.13521 11.4371 9.23378 11.6572H8.84901V12.4277L8.76796 12.4443C8.66412 12.086 8.49829 11.689 8.22792 11.333L8.3578 11.2354C8.48972 11.1351 8.65124 11.0471 8.85878 10.9961ZM9.64003 9.55176C11.0417 9.69674 11.7647 10.6941 12.1205 11.4951L11.4965 11.7168C11.4817 11.7048 11.4708 11.6925 11.4613 11.6875C11.4512 11.6834 11.4377 11.6798 11.4252 11.6758C11.2879 11.3877 11.1039 11.0969 10.851 10.8525C10.5434 10.5554 10.1448 10.3378 9.64003 10.2676V9.55176ZM7.28554 10.4092L7.22694 10.5039L7.0912 10.4189L7.21913 10.3223L7.28554 10.4092ZM8.19081 10.2949C8.24502 10.3374 8.29784 10.3801 8.34804 10.4248C8.30708 10.4427 8.26756 10.4624 8.2289 10.4824L8.14394 10.3701L8.19081 10.2949ZM8.93202 9.99902C8.79776 9.87 8.65015 9.74721 8.48866 9.63184C8.62893 9.59564 8.77663 9.56997 8.93202 9.55371V9.99902Z" fill="#FF797B" stroke="#FF797B" stroke-width="0.707789"/>
<path d="M5.7471 9.88751C8.27532 9.88751 8.99727 11.6931 9.20324 12.725C9.28039 13.108 8.96967 13.4265 8.57826 13.4265H2.91595C2.52525 13.4265 2.21382 13.108 2.29097 12.725C2.49694 11.6924 3.21888 9.88751 5.7471 9.88751ZM12.825 1.39404V4.2252ZM14.2406 2.80962H11.4094Z" fill="#FF797B"/>
<path d="M12.825 1.39404V4.2252M14.2406 2.80962H11.4094M5.7471 9.88751C8.27532 9.88751 8.99727 11.6931 9.20324 12.725C9.28039 13.108 8.96967 13.4265 8.57826 13.4265H2.91595C2.52525 13.4265 2.21382 13.108 2.29097 12.725C2.49694 11.6924 3.21888 9.88751 5.7471 9.88751Z" stroke="#FF797B" stroke-width="1.41558" stroke-linecap="round"/>
</g>
<defs>
<clipPath id="clip0_819_1543936">
<rect width="14.7456" height="14.7456" fill="white" transform="translate(0.783997 0.627197)"/>
</clipPath>
</defs>
</svg>
