<svg width="27" height="26" viewBox="0 0 27 26" fill="none" xmlns="http://www.w3.org/2000/svg">
<path d="M13.9449 8.67997V13M13.9449 17.32H13.9557M9.5169 21.64C11.5782 22.6974 13.9493 22.9838 16.2031 22.4476C18.4568 21.9114 20.4449 20.5879 21.8092 18.7155C23.1734 16.8432 23.8241 14.5451 23.6439 12.2355C23.4637 9.92587 22.4646 7.75654 20.8264 6.11842C19.1883 4.4803 17.019 3.48112 14.7094 3.30094C12.3997 3.12076 10.1017 3.77142 8.22934 5.13568C6.357 6.49993 5.03348 8.48807 4.4973 10.7418C3.96111 12.9956 4.24751 15.3667 5.3049 17.428L3.1449 23.8L9.5169 21.64Z" stroke="#FF797B" stroke-width="2.16" stroke-linecap="round" stroke-linejoin="round"/>
</svg>
