<svg width="25" height="24" viewBox="0 0 25 24" fill="none" xmlns="http://www.w3.org/2000/svg">
<path d="M18.245 9.65H20.145C20.6489 9.65 21.1322 9.85018 21.4885 10.2065C21.8448 10.5628 22.045 11.0461 22.045 11.55V22L18.245 18.2H12.545C12.0411 18.2 11.5578 17.9998 11.2015 17.6435C10.8452 17.2872 10.645 16.8039 10.645 16.3V15.35M14.445 9.65C14.445 10.1539 14.2448 10.6372 13.8885 10.9935C13.5322 11.3498 13.0489 11.55 12.545 11.55H6.84498L3.04498 15.35V4.9C3.04498 4.39609 3.24516 3.91282 3.60148 3.5565C3.9578 3.20018 4.44107 3 4.94498 3H12.545C13.0489 3 13.5322 3.20018 13.8885 3.5565C14.2448 3.91282 14.445 4.39609 14.445 4.9V9.65Z" stroke="#2381F1" stroke-width="2" stroke-linecap="round" stroke-linejoin="round"/>
</svg>
