<svg width="12" height="12" viewBox="0 0 12 12" fill="none" xmlns="http://www.w3.org/2000/svg">
<path d="M7.18387 9.70778V6.25178C7.18387 6.1372 7.13836 6.02732 7.05734 5.94631C6.97633 5.86529 6.86645 5.81978 6.75187 5.81978H5.02387C4.9093 5.81978 4.79942 5.86529 4.7184 5.94631C4.63739 6.02732 4.59187 6.1372 4.59187 6.25178V9.70778M1.99987 4.95578C1.99984 4.83009 2.02723 4.70592 2.08013 4.59191C2.13303 4.4779 2.21017 4.37681 2.30616 4.29568L5.33016 1.70411C5.48611 1.57231 5.68369 1.5 5.88787 1.5C6.09205 1.5 6.28964 1.57231 6.44558 1.70411L9.46958 4.29568C9.56558 4.37681 9.64271 4.4779 9.69561 4.59191C9.74851 4.70592 9.7759 4.83009 9.77587 4.95578V8.84378C9.77587 9.07292 9.68484 9.29268 9.52281 9.45472C9.36078 9.61675 9.14102 9.70778 8.91187 9.70778H2.86387C2.63472 9.70778 2.41496 9.61675 2.25293 9.45472C2.0909 9.29268 1.99987 9.07292 1.99987 8.84378V4.95578Z" stroke="#878787" stroke-width="0.864" stroke-linecap="round" stroke-linejoin="round"/>
</svg>
