<svg width="15" height="14" viewBox="0 0 15 14" fill="none" xmlns="http://www.w3.org/2000/svg">
<g clip-path="url(#clip0_819_1543929)">
<path d="M6.55922 12.184C6.66033 12.3591 6.80576 12.5045 6.98088 12.6056C7.156 12.7067 7.35464 12.7599 7.55685 12.7599C7.75906 12.7599 7.95771 12.7067 8.13283 12.6056C8.30795 12.5045 8.45337 12.3591 8.55448 12.184M13.3169 4.69599C13.3169 3.37119 12.8561 2.21919 12.1649 1.23999M2.94885 1.23999C2.25765 2.21919 1.79685 3.37119 1.79685 4.69599M2.52376 8.91577C2.44852 8.99824 2.39886 9.1008 2.38083 9.21098C2.3628 9.32115 2.37718 9.43419 2.42222 9.53635C2.46725 9.6385 2.54101 9.72537 2.6345 9.78638C2.728 9.84739 2.83721 9.87991 2.94885 9.87999H12.1649C12.2765 9.88003 12.3857 9.84763 12.4793 9.78674C12.5728 9.72585 12.6467 9.63908 12.6918 9.53699C12.737 9.4349 12.7515 9.32189 12.7336 9.21171C12.7157 9.10152 12.6662 8.99891 12.5911 8.91634C11.825 8.12665 11.0129 7.28741 11.0129 4.69599C11.0129 3.7794 10.6487 2.90035 10.0006 2.25223C9.35249 1.6041 8.47344 1.23999 7.55685 1.23999C6.64026 1.23999 5.76122 1.6041 5.11309 2.25223C4.46497 2.90035 4.10085 3.7794 4.10085 4.69599C4.10085 7.28741 3.28812 8.12665 2.52376 8.91577Z" stroke="#FF797B" stroke-width="1.152" stroke-linecap="round" stroke-linejoin="round"/>
</g>
<defs>
<clipPath id="clip0_819_1543929">
<rect width="13.824" height="13.824" fill="white" transform="translate(0.644798 0.0880127)"/>
</clipPath>
</defs>
</svg>
