<svg width="12" height="12" viewBox="0 0 12 12" fill="none" xmlns="http://www.w3.org/2000/svg">
<path d="M5.73918 6.59685C6.03079 6.59685 6.26718 6.36045 6.26718 6.06885C6.26718 5.77724 6.03079 5.54085 5.73918 5.54085C5.44758 5.54085 5.21118 5.77724 5.21118 6.06885C5.21118 6.36045 5.44758 6.59685 5.73918 6.59685Z" stroke="#878787" stroke-width="1.056" stroke-linecap="round" stroke-linejoin="round"/>
<path d="M5.73918 2.90085C6.03079 2.90085 6.26718 2.66445 6.26718 2.37285C6.26718 2.08124 6.03079 1.84485 5.73918 1.84485C5.44758 1.84485 5.21118 2.08124 5.21118 2.37285C5.21118 2.66445 5.44758 2.90085 5.73918 2.90085Z" stroke="#878787" stroke-width="1.056" stroke-linecap="round" stroke-linejoin="round"/>
<path d="M5.73918 10.2928C6.03079 10.2928 6.26718 10.0565 6.26718 9.76485C6.26718 9.47324 6.03079 9.23685 5.73918 9.23685C5.44758 9.23685 5.21118 9.47324 5.21118 9.76485C5.21118 10.0565 5.44758 10.2928 5.73918 10.2928Z" stroke="#878787" stroke-width="1.056" stroke-linecap="round" stroke-linejoin="round"/>
</svg>
