<svg width="27" height="27" viewBox="0 0 27 27" fill="none" xmlns="http://www.w3.org/2000/svg">
<path d="M9.53896 13.5H9.54976M13.859 13.5H13.8698M18.179 13.5H18.1898M9.43096 22.14C11.4922 23.1974 13.8634 23.4838 16.1171 22.9476C18.3709 22.4114 20.359 21.0879 21.7233 19.2155C23.0875 17.3432 23.7382 15.0451 23.558 12.7355C23.3778 10.4259 22.3786 8.25654 20.7405 6.61842C19.1024 4.9803 16.9331 3.98112 14.6234 3.80094C12.3138 3.62076 10.0157 4.27142 8.14341 5.63568C6.27106 6.99993 4.94755 8.98807 4.41136 11.2418C3.87517 13.4956 4.16158 15.8667 5.21896 17.928L3.05896 24.3L9.43096 22.14Z" stroke="#EAAC34" stroke-width="2.16" stroke-linecap="round" stroke-linejoin="round"/>
</svg>
