<svg width="16" height="16" viewBox="0 0 16 16" fill="none" xmlns="http://www.w3.org/2000/svg">
<g clip-path="url(#clip0_819_1543922)">
<path d="M7.39109 2.01318H2.6489C2.27347 2.01318 1.91341 2.16232 1.64794 2.4278C1.38246 2.69327 1.23332 3.05333 1.23332 3.42876V14.7534L4.06448 11.9222H12.5579C12.9334 11.9222 13.2934 11.7731 13.5589 11.5076C13.8244 11.2421 13.9735 10.8821 13.9735 10.5067V8.59562M13.9735 4.13655C13.9735 5.30925 13.0229 6.25992 11.8502 6.25992C10.6775 6.25992 9.72679 5.30925 9.72679 4.13655C9.72679 2.96385 10.6775 2.01318 11.8502 2.01318C13.0229 2.01318 13.9735 2.96385 13.9735 4.13655Z" stroke="#FF797B" stroke-width="1.41558" stroke-linecap="round" stroke-linejoin="round"/>
</g>
<defs>
<clipPath id="clip0_819_1543922">
<rect width="14.7456" height="14.7456" fill="white" transform="translate(0.583998 0.627197)"/>
</clipPath>
</defs>
</svg>
